<svg width="450" height="93" viewBox="0 0 450 93" fill="none" xmlns="http://www.w3.org/2000/svg">
<path d="M1.9075 90.7533C78.6822 59.2835 153.981 25.5846 234.859 6.52425C237.3 5.94893 256.286 -1.90074 246.313 4.93835C224.958 19.5813 203.821 34.6948 184.022 51.1939C181.548 53.2552 169.076 61.5468 170.894 60.8855C192.477 53.0372 213.347 43.3557 235.035 35.7754C239.526 34.2058 263.896 22.1552 254.242 34.7181C246.73 44.4945 236.547 51.5786 226.577 58.5947C214.028 67.4257 254.413 45.6255 268.692 40.0044C275.907 37.1639 290.167 31.7733 297.767 29.0793C298.657 28.7637 313.766 22.1095 316.357 24.1454C318.607 25.913 308.938 38.5441 308.339 41.2379C307.576 44.6714 339.647 38.2997 340.938 38.0661C351.347 36.1826 382.33 31.2807 371.775 30.5771C351.158 29.2026 330.041 30.489 309.396 30.489C263.523 30.489 217.649 30.489 171.775 30.489C136.416 30.489 30.3363 30.489 65.696 30.489C131.094 30.489 196.614 30.2724 261.996 28.9031C270.724 28.7203 275.733 25.354 283.67 22.9119C284.389 22.6904 287.905 21.934 288.604 22.9119C290.787 25.969 290.429 32.8553 291.335 36.4802C292.315 40.4001 294.273 42.8846 296.004 46.348C298.751 51.842 296.116 50.2507 301.908 47.9339C311.769 43.9894 322.546 42.1428 332.833 39.8282C371.543 31.1183 409.534 21.1572 447.546 9.87227" stroke="black" stroke-width="3" stroke-linecap="round"/>
</svg>
